<?xml version="1.0" encoding="iso-8859-1"?>
<!-- Uploaded to: SVG Repo, www.svgrepo.com, Generator: SVG Repo Mixer Tools -->
<!DOCTYPE svg PUBLIC "-//W3C//DTD SVG 1.1//EN" "http://www.w3.org/Graphics/SVG/1.1/DTD/svg11.dtd">
<svg fill="#000000" height="800px" width="800px" version="1.1" id="Capa_1" xmlns="http://www.w3.org/2000/svg" xmlns:xlink="http://www.w3.org/1999/xlink" 
	 viewBox="0 0 448.711 448.711" xml:space="preserve">
<path id="XMLID_151_" d="M334.517,51.736c0,0-2.129-77.854-87.991-42.554c-0.918,0.374-1.41,1.381-1.16,2.335
	c0.257,0.961,1.189,1.584,2.173,1.453c16.898-2.247,39.785,0.455,50.987,26.977c0,0-53.064-33.965-123.189,47.501
	c-0.646,0.749-0.639,1.856,0.015,2.598c0.66,0.741,1.762,0.889,2.584,0.339c22.63-15.123,71.46-41.299,103.339-11.445
	c0,0-68.371-4.205-75.85,88.718c-48.998-55.971-85.965-32.423-85.965-32.423c7.929-18.763,24.136-20.642,36.079-19.041
	c0.698,0.088,1.352-0.346,1.535-1.028c0.183-0.675-0.17-1.38-0.815-1.652c-59.892-24.766-55.818,31.375-55.818,31.375
	c-63.767-15.922-62.285,59.679-59.333,89.48c0.066,0.697,0.639,1.232,1.336,1.263c0.697,0.022,1.306-0.471,1.431-1.16
	c7.649-43.889,44.63-62.856,44.63-62.856c-33.833,48.196-22.866,99.823-13.418,126.146c0.352,0.976,1.38,1.541,2.386,1.307
	c1.012-0.234,1.694-1.182,1.584-2.216c-5.696-53.205,30.721-95.817,38.442-104.192c26.303,35.374,35.36,93.834,38.334,134.699
	c-54.636,13.69-93.563,46.524-93.563,68.957c0,28.937,64.714,52.396,144.543,52.396c79.835,0,144.549-23.459,144.549-52.396
	c0-21.574-35.961-52.831-87.308-67.372c-2.613-62.586,3.912-144.983,46.833-196.329c18.402,23.401,51.413,74.778,44.843,136.122
	c-0.161,1.461,0.801,2.805,2.233,3.134c1.431,0.331,2.885-0.462,3.384-1.841c13.366-37.261,28.891-110.352-18.998-178.588
	c0,0,49.754,25.521,62.291,84.379c0.214,0.983,1.117,1.65,2.115,1.557c0.999-0.09,1.768-0.912,1.798-1.91
	C409.735,131.095,404.523,34.259,334.517,51.736z M191.766,321.492c-0.316,0.023-0.609,0.074-0.917,0.097
	c-8.692-72.532-37.93-113.669-55.84-132.482c24.958,1.451,39.88,25.265,46.554,39.447c0.417,0.889,1.409,1.357,2.363,1.115
	c0.955-0.249,1.601-1.138,1.535-2.121c-4.361-67.922-53.814-64.766-53.814-64.766c22.328-20.908,57.351-2.353,73.53,8.376
	c0.143,1.163,0.926,2.159,2.091,2.466c1.352,0.345,2.76-0.315,3.348-1.578c9.902-21.03,32.555-57.183,71.026-56.029
	C258.624,145.827,215.109,213.55,191.766,321.492z"/>
</svg>